<svg width="42" height="43" viewBox="0 0 42 43" fill="none" xmlns="http://www.w3.org/2000/svg">
    <g filter="url(#filter0_d_1_127)">
        <rect width="38" height="38" rx="16" fill="#F4AF25" shape-rendering="crispEdges"/>
        <path d="M15.3076 30H10.9333C10.1267 30 9.43611 29.7128 8.86167 29.1383C8.28722 28.5639 8 27.8733 8 27.0667V22.6924C8.65185 22.6924 9.20078 22.4694 9.64678 22.0234C10.0928 21.5774 10.3158 21.0285 10.3158 20.3766C10.3158 19.7248 10.0928 19.1758 9.64678 18.7298C9.20078 18.2838 8.65185 18.0608 8 18.0608V13.6865C8 12.8799 8.28722 12.1893 8.86167 11.6149C9.43611 11.0404 10.1267 10.7532 10.9333 10.7532H14.3041C14.4928 9.92982 14.8959 9.26511 15.5135 8.75906C16.131 8.25302 16.8343 8 17.6234 8C18.4125 8 19.1158 8.25302 19.7333 8.75906C20.3509 9.26511 20.754 9.92982 20.9427 10.7532H24.3134C25.1201 10.7532 25.8107 11.0404 26.3851 11.6149C26.9596 12.1893 27.2468 12.8799 27.2468 13.6865V17.0573C28.0702 17.246 28.7349 17.6491 29.2409 18.2667C29.747 18.8842 30 19.5875 30 20.3766C30 21.1657 29.747 21.869 29.2409 22.4865C28.7349 23.1041 28.0702 23.5072 27.2468 23.6959V27.0667C27.2468 27.8733 26.9596 28.5639 26.3851 29.1383C25.8107 29.7128 25.1201 30 24.3134 30H19.9392C19.9392 29.2452 19.7149 28.6062 19.2664 28.083C18.8179 27.5598 18.2732 27.2982 17.6325 27.2982C16.9917 27.2982 16.4441 27.5609 15.9895 28.0863C15.5349 28.6116 15.3076 29.2495 15.3076 30V30M11.2421 26.7579H13.1719C13.515 25.883 14.0982 25.214 14.9216 24.7509C15.745 24.2877 16.6456 24.0561 17.6234 24.0561C18.5497 24.0561 19.4246 24.2877 20.248 24.7509C21.0713 25.214 21.6803 25.883 22.0749 26.7579H24.0047V20.8912H26.2433C26.3805 20.8912 26.5006 20.8398 26.6035 20.7368C26.7064 20.6339 26.7579 20.5138 26.7579 20.3766C26.7579 20.2394 26.7064 20.1193 26.6035 20.0164C26.5006 19.9135 26.3805 19.862 26.2433 19.862H24.0047V13.9953H18.138V11.7567C18.138 11.6195 18.0865 11.4994 17.9836 11.3965C17.8807 11.2936 17.7606 11.2421 17.6234 11.2421C17.4862 11.2421 17.3661 11.2936 17.2632 11.3965C17.1602 11.4994 17.1088 11.6195 17.1088 11.7567V13.9953H11.2421V15.8994C11.9626 16.4312 12.5329 17.0873 12.9532 17.8678C13.3735 18.6483 13.5836 19.4885 13.5836 20.3882C13.5836 21.2725 13.3735 22.1092 12.9532 22.8982C12.5329 23.6873 11.9626 24.3478 11.2421 24.8795V26.7579V26.7579M17.6234 20.3766V20.3766V20.3766V20.3766V20.3766V20.3766V20.3766V20.3766V20.3766V20.3766V20.3766V20.3766V20.3766V20.3766V20.3766V20.3766V20.3766V20.3766V20.3766V20.3766V20.3766V20.3766V20.3766V20.3766V20.3766V20.3766V20.3766V20.3766V20.3766V20.3766"
              fill="#221C10"/>
        <path d="M14.322 22V21.188H14.966V17.912H14.322V17.1H16.338C16.996 17.1 17.4953 17.268 17.836 17.604C18.1813 17.9353 18.354 18.43 18.354 19.088V20.012C18.354 20.67 18.1813 21.167 17.836 21.503C17.4953 21.8343 16.996 22 16.338 22H14.322ZM15.89 21.16H16.352C16.7253 21.16 16.9983 21.062 17.171 20.866C17.3437 20.67 17.43 20.3947 17.43 20.04V19.06C17.43 18.7007 17.3437 18.4253 17.171 18.234C16.9983 18.038 16.7253 17.94 16.352 17.94H15.89V21.16ZM21.0281 22.098C20.4121 22.098 19.9221 21.93 19.5581 21.594C19.1941 21.2533 19.0121 20.768 19.0121 20.138V18.962C19.0121 18.332 19.1941 17.849 19.5581 17.513C19.9221 17.1723 20.4121 17.002 21.0281 17.002C21.6441 17.002 22.1341 17.1723 22.4981 17.513C22.8621 17.849 23.0441 18.332 23.0441 18.962V20.138C23.0441 20.768 22.8621 21.2533 22.4981 21.594C22.1341 21.93 21.6441 22.098 21.0281 22.098ZM21.0281 21.272C21.3734 21.272 21.6418 21.1717 21.8331 20.971C22.0244 20.7703 22.1201 20.502 22.1201 20.166V18.934C22.1201 18.598 22.0244 18.3297 21.8331 18.129C21.6418 17.9283 21.3734 17.828 21.0281 17.828C20.6874 17.828 20.4191 17.9283 20.2231 18.129C20.0318 18.3297 19.9361 18.598 19.9361 18.934V20.166C19.9361 20.502 20.0318 20.7703 20.2231 20.971C20.4191 21.1717 20.6874 21.272 21.0281 21.272ZM21.3501 23.26C21.1214 23.26 20.9348 23.1877 20.7901 23.043C20.6501 22.903 20.5801 22.714 20.5801 22.476V22H21.4761V22.336C21.4761 22.476 21.5414 22.546 21.6721 22.546H22.0851V23.26H21.3501Z"
              fill="#0F172A"/>
    </g>
    <defs>
        <filter id="filter0_d_1_127" x="0" y="0" width="42" height="43" filterUnits="userSpaceOnUse"
                color-interpolation-filters="sRGB">
            <feFlood flood-opacity="0" result="BackgroundImageFix"/>
            <feColorMatrix in="SourceAlpha" type="matrix" values="0 0 0 0 0 0 0 0 0 0 0 0 0 0 0 0 0 0 127 0"
                           result="hardAlpha"/>
            <feOffset dx="2" dy="3"/>
            <feGaussianBlur stdDeviation="1"/>
            <feComposite in2="hardAlpha" operator="out"/>
            <feColorMatrix type="matrix" values="0 0 0 0 0.956863 0 0 0 0 0.686275 0 0 0 0 0.145098 0 0 0 0.55 0"/>
            <feBlend mode="normal" in2="BackgroundImageFix" result="effect1_dropShadow_1_127"/>
            <feBlend mode="normal" in="SourceGraphic" in2="effect1_dropShadow_1_127" result="shape"/>
        </filter>
    </defs>
</svg>
